<svg width="27" height="28" viewBox="0 0 27 28" fill="none" xmlns="http://www.w3.org/2000/svg">
<path d="M24.7208 5.00481H2.27922C1.01688 5.00481 0 3.88835 0 2.5024C0 1.11646 1.01688 0 2.27922 0H24.7208C25.9831 0 27 1.11646 27 2.5024C27 3.88835 25.9831 5.00481 24.7208 5.00481ZM27 13.667C27 12.281 25.9831 11.1646 24.7208 11.1646H2.27922C1.01688 11.1646 0 12.281 0 13.667C0 15.0529 1.01688 16.1694 2.27922 16.1694H24.7208C25.9831 16.1694 27 15.0529 27 13.667ZM27 24.8315C27 23.4456 25.9831 22.3291 24.7208 22.3291H2.27922C1.01688 22.3291 0 23.4456 0 24.8315C0 26.2175 1.01688 27.3339 2.27922 27.3339H24.7208C25.9831 27.3339 27 26.2175 27 24.8315Z" fill="white"/>
</svg>
