<svg width="24" height="26" viewBox="0 0 24 26" fill="none" xmlns="http://www.w3.org/2000/svg">
<path d="M22 11.5V14.5C22 18.5 20 20.5 16 20.5H15.5C15.19 20.5 14.89 20.65 14.7 20.9L13.2 22.9C12.54 23.78 11.46 23.78 10.8 22.9L9.3 20.9C9.14 20.68 8.77 20.5 8.5 20.5H8C4 20.5 2 19.5 2 14.5V9.5C2 5.5 4 3.5 8 3.5H14" stroke="white" stroke-width="1.5" stroke-miterlimit="10" stroke-linecap="round" stroke-linejoin="round"/>
<path d="M15.9965 12.5H16.0054" stroke="white" stroke-width="2" stroke-linecap="round" stroke-linejoin="round"/>
<path d="M11.9955 12.5H12.0045" stroke="white" stroke-width="2" stroke-linecap="round" stroke-linejoin="round"/>
<path d="M7.99451 12.5H8.00349" stroke="white" stroke-width="2" stroke-linecap="round" stroke-linejoin="round"/>
<path d="M17 3.5L19.7692 8.5L23 1" stroke="white" stroke-width="2"/>
</svg>
