<svg width="22" height="22" viewBox="0 0 22 22" fill="none" xmlns="http://www.w3.org/2000/svg">
<path d="M21 9V12C21 16 19 18 15 18H14.5C14.19 18 13.89 18.15 13.7 18.4L12.2 20.4C11.54 21.28 10.46 21.28 9.8 20.4L8.3 18.4C8.14 18.18 7.77 18 7.5 18H7C3 18 1 17 1 12V7C1 3 3 1 7 1H13" stroke="white" stroke-width="1.5" stroke-miterlimit="10" stroke-linecap="round" stroke-linejoin="round"/>
<path d="M18.5 6C19.8807 6 21 4.88071 21 3.5C21 2.11929 19.8807 1 18.5 1C17.1193 1 16 2.11929 16 3.5C16 4.88071 17.1193 6 18.5 6Z" stroke="#04B000" stroke-width="1.5" stroke-linecap="round" stroke-linejoin="round"/>
</svg>
