<svg width="22" height="22" viewBox="0 0 22 22" fill="none" xmlns="http://www.w3.org/2000/svg">
<path d="M14 1H8C3 1 1 3 1 8V14C1 17.78 2.14 19.85 4.86 20.62C5.08 18.02 7.75 15.97 11 15.97C14.25 15.97 16.92 18.02 17.14 20.62C19.86 19.85 21 17.78 21 14V8C21 3 19 1 14 1ZM11 13.17C9.02 13.17 7.42 11.56 7.42 9.58002C7.42 7.60002 9.02 6 11 6C12.98 6 14.58 7.60002 14.58 9.58002C14.58 11.56 12.98 13.17 11 13.17Z" stroke="white" stroke-width="1.5" stroke-linecap="round" stroke-linejoin="round"/>
</svg>
