<svg width="22" height="20" viewBox="0 0 22 20" fill="none" xmlns="http://www.w3.org/2000/svg">
<path d="M17.2929 4.85091L14.5994 1.0082C14.3997 0.723993 14.1344 0.490859 13.8253 0.328123C13.5163 0.165386 13.1724 0.0777326 12.8222 0.0724252L7.71054 0H7.7C5.06096 0 3.03614 0.435955 1.73204 2.56358C0.517917 4.54405 0 7.91766 0 13.8439V14.5681H1.67553L0.596933 20H2.09156L3.17015 14.5681H3.66667C4.86437 14.5787 6.01822 14.1235 6.87903 13.301C7.65724 12.5656 8.21856 11.5596 8.5024 10.3916L8.50497 10.3811L9.76278 4.42858H8.26448L7.07378 10.0636C6.71115 11.5429 5.62678 13.1196 3.66667 13.1196H1.46942C1.50925 7.99253 1.98193 4.9528 2.98673 3.3135C3.83006 1.93742 5.06275 1.44896 7.69491 1.44828L12.8011 1.5207C12.9178 1.52246 13.0325 1.55167 13.1355 1.60592C13.2385 1.66016 13.327 1.73788 13.3935 1.83263L16.4404 6.179L20.5333 6.85274V7.6204L19.8508 11.2155C19.6493 12.2765 19.305 12.811 17.8929 12.9786L12.1039 13.9567L12.0656 20H13.5322L13.5628 15.1795L18.0866 14.4145C19.1114 14.2901 19.8675 13.9639 20.3978 13.4176C20.8511 12.9506 21.1269 12.3539 21.2924 11.4824L22 7.75502V5.62567L17.2929 4.85091Z" fill="white"/>
</svg>