<svg width="17" height="17" viewBox="0 0 62 62" fill="none" xmlns="http://www.w3.org/2000/svg">
<path d="M15.3614 25.8546C11.0196 28.9093 10.2626 34.7418 13.6662 38.816L19.288 45.5456C23.1141 50.1256 29.438 50.1858 33.3281 45.648C37.4077 40.8802 37.4732 33.0492 33.4475 28.2304C29.0815 23.0041 20.9375 21.9358 15.3614 25.8546Z" fill="#FF2C55"/>
<path d="M35.4692 23.5119C37.0897 25.4517 39.9759 25.7105 41.9157 24.09C43.8554 22.4696 44.1143 19.5834 42.4938 17.6436C40.8733 15.7038 37.9871 15.445 36.0474 17.0655C34.1076 18.686 33.8487 21.5721 35.4692 23.5119Z" fill="#FF2C55"/>
<path d="M41.7994 34.5157C43.0958 36.0675 45.4048 36.2746 46.9566 34.9782C48.5084 33.6818 48.7155 31.3729 47.4191 29.821C46.1227 28.2692 43.8138 28.0622 42.2619 29.3586C40.7101 30.6549 40.503 32.9639 41.7994 34.5157Z" fill="#FF2C55"/>
<path d="M40.5223 44.4086C41.4946 45.5725 43.2263 45.7278 44.3902 44.7555C45.5541 43.7832 45.7094 42.0515 44.7371 40.8876C43.7648 39.7238 42.0331 39.5685 40.8692 40.5408C39.7053 41.5131 39.55 43.2448 40.5223 44.4086Z" fill="#FF2C55"/>
<path d="M23.3447 18.1356C24.6411 19.6874 26.95 19.8945 28.5019 18.5981C30.0537 17.3017 30.2608 14.9927 28.9644 13.4409C27.668 11.8891 25.359 11.682 23.8072 12.9784C22.2554 14.2748 22.0483 16.5837 23.3447 18.1356Z" fill="#FF2C55"/>
</svg>
