<?xml version="1.0" encoding="UTF-8"?>
<!-- Created with Inkscape (http://www.inkscape.org/) -->
<svg width="26.456mm" height="26.456mm" version="1.1" viewBox="0 0 26.456 26.456" xml:space="preserve" xmlns="http://www.w3.org/2000/svg"><g transform="translate(-1.4316 -1.5764)"><g transform="matrix(.65328 0 0 .65328 4.9453 -26.137)"><g transform="translate(-122.07 -80.485)" stroke-linecap="round" stroke-width=".139"><rect x="116.69" y="122.91" width="40.498" height="40.498" rx="2.4"/><path d="m128.33 134.37s-0.43917-2.7336 1.6234-5.3946c2.0625-2.661 5.5778-2.8669 5.5778-2.8669s-3.0306 0.18189-5.3628 3.243c-2.3322 3.0611-1.8384 5.0185-1.8384 5.0185zm14.516-5.0193s0.0852 2.2512-1.7324 4.2016c-1.8176 1.9504-4.5195 1.7765-4.5195 1.7765s2.3298 0.1464 4.3898-2.1012c2.06-2.2475 1.8621-3.8769 1.8621-3.8769zm-16.042 3.9699s-0.43917-2.7336 1.6234-5.3946c2.0626-2.661 5.5778-2.8669 5.5778-2.8669s-3.0306 0.18189-5.3628 3.243c-2.3322 3.0611-1.8384 5.0185-1.8384 5.0185zm4.4554 25.021c-0.47956 0-0.69223-0.15934-1.3394-0.64493-0.64722-0.48558-1.5753-1.5629-2.1478-4.6326-0.57257-3.0697-1.4522-11.008 2.6755-18.064 4.1276-7.0561 12.741-8.1255 13.194-8.1297-0.34825 0.50389-6.8444 3.5612-9.7334 8.9612-2.889 5.4001-3.3815 17.132-3.1961 18.684 0.18542 1.552 0.45621 1.5685 0.96884 1.5685 0.24804 0 0.51263-0.15709 0.79375-0.47129 0.28112-0.31419 0.56224-0.71933 0.84336-1.2154 0.29765-0.49609 0.58704-1.0501 0.86816-1.6619s0.5457-1.2154 0.79375-1.8107c0.14883-0.38034 0.30592-0.80202 0.47129-1.265 0.1819-0.47956 0.35553-0.96739 0.5209-1.4635 0.1819-0.49609 0.35553-0.98392 0.5209-1.4635l0.44648-1.3394c0-0.49609 8e-3 -1.017 0.0248-1.5627 0.0165-0.56223 0.0496-1.1245 0.0992-1.6867 0.0662-0.57878 0.14883-1.141 0.24805-1.6867 0.0992-0.56224 0.23151-1.0749 0.39687-1.5379 0.33073-0.89297 0.71934-1.5462 1.1658-1.9596 0.44649-0.42995 0.83509-0.65319 1.1658-0.66973 0.23151 0 0.39688 0.0992 0.4961 0.29766 0.0992 0.19844 0.14056 0.46302 0.12402 0.79375-0.0331 0.42995-0.10749 0.95085-0.22324 1.5627-0.11576 0.59531-0.25632 1.2402-0.42168 1.9348-0.14883 0.678-0.32246 1.3725-0.5209 2.0836-0.19844 0.69453-0.38861 1.3643-0.57051 2.0092-0.29766 1.7033-0.47956 3.2494-0.5457 4.6385-0.0661 1.3725-0.0579 2.5549 0.0248 3.5471 0.0992 0.97565 0.25631 1.7281 0.47129 2.2572 0.23151 0.5457 0.50436 0.81855 0.81855 0.81855 0.3638 0 0.74414-0.24805 1.141-0.74414 0.41341-0.49609 0.81855-1.1493 1.2154-1.9596 0.39687-0.82682 0.77721-1.7611 1.141-2.8029 0.38034-1.0418 0.71934-2.1084 1.017-3.1998 0.3142-1.1079 0.57051-2.1911 0.76895-3.2494 0.19844-1.0749 0.33073-2.0422 0.39687-2.9022 0.0496-0.71106 0.0744-1.4139 0.0744-2.1084 0-0.59532-0.0248-1.232-0.0744-1.91-0.0496-0.678-0.14055-1.2898-0.27285-1.8356 0.21498-0.1819 0.50436-0.33073 0.86817-0.44649 0.1819-0.0662 0.38034-0.12402 0.59531-0.17363 0.13229-0.0331 0.27285-0.0579 0.42168-0.0744 0.13229-0.0165 0.26458-0.0248 0.39687-0.0248 0.1323-0.0165 0.25632-8e-3 0.37207 0.0248 0.0992 0.23151 0.16537 0.52917 0.19844 0.89297 0.0496 0.3638 0.0827 0.71934 0.0992 1.0666 0.0165 0.41341 8e-3 0.84336-0.0248 1.2898-0.13229 1.7529-0.3638 3.4726-0.69453 5.1594-0.31419 1.6867-0.7028 3.2908-1.1658 4.8121-0.46302 1.5048-0.98392 2.8939-1.5627 4.1672-0.56224 1.2568-1.1493 2.3482-1.7611 3.2742-0.59531 0.92605-1.1989 1.6454-1.8107 2.158-0.59531 0.51263-1.1658 0.76895-1.7115 0.76895-0.57878 0-1.0418-0.24805-1.3891-0.74414-0.34726-0.47956-0.61184-1.0914-0.79375-1.8356-0.1819-0.7276-0.29765-1.5131-0.34726-2.3564-0.0496-0.84335-0.0661-1.6206-0.0496-2.3316-0.38034 0.92605-0.79375 1.819-1.2402 2.6789-0.42994 0.8599-0.8847 1.6206-1.3642 2.282-0.46302 0.678-0.94258 1.2154-1.4387 1.6123-0.47955 0.41341-0.95911 0.62011-1.4387 0.62011z" fill="#fff"/></g></g></g></svg>
