<?xml version="1.0" encoding="UTF-8"?>
<!-- Created with Inkscape (http://www.inkscape.org/) -->
<svg width="47.744mm" height="26.767mm" version="1.1" viewBox="0 0 47.744 26.767" xml:space="preserve" xmlns="http://www.w3.org/2000/svg"><g transform="matrix(.65328 0 0 .65328 1.1003 -30.582)"><g transform="translate(-38.523 -35.823)"><path d="m52.924 86.928s0.08524 2.2512-1.7324 4.2016c-1.8176 1.9504-4.5195 1.7765-4.5195 1.7765s2.3298 0.1464 4.3898-2.1011 1.8621-3.8769 1.8621-3.8769zm-16.042 3.9699s-0.43917-2.7336 1.6234-5.3946 5.5778-2.8669 5.5778-2.8669-3.0306 0.18189-5.3628 3.243-1.8384 5.0185-1.8384 5.0185zm1.5265 1.0495s-0.43917-2.7336 1.6234-5.3946 5.5778-2.8669 5.5778-2.8669-3.0306 0.18189-5.3628 3.243-1.8384 5.0185-1.8384 5.0185zm71.34 14.075q-0.74414 1.0914-1.6867 2.1332-0.94257 1.017-2.0092 1.8356-1.0418 0.79375-2.158 1.2898-1.0914 0.4961-2.1332 0.4961-0.5457 0-1.1906-0.27286-0.62012-0.24804-1.141-0.79375-0.52089-0.5457-0.84336-1.4139-0.29765-0.86817-0.17363-2.1084 0.0992-1.017 0.62012-2.1332 0.5457-1.141 1.3146-2.0836 0.79375-0.94258 1.7611-1.5627 0.99219-0.62012 1.9844-0.62012 0.94257 0 1.3642 0.47129t0.37207 1.1658q-0.0744 0.76894-0.44648 1.4139-0.34727 0.64492-0.84336 1.1658-0.49609 0.52089-1.0666 0.94257-0.54571 0.42168-1.0418 0.76895-0.5457 0.37207-1.0418 0.71933-0.49609 0.32246-0.86816 0.59532 0.0248 0.62011 0.22324 1.0418t0.4961 0.69453q0.29765 0.24805 0.66972 0.37207 0.39688 0.0992 0.79375 0.0992 0.84336 0 1.7611-0.52089 0.91777-0.54571 1.7859-1.2898 0.89297-0.76894 1.6371-1.5875 0.76895-0.81855 1.265-1.4139 0.17363-0.19844 0.34727-0.22325 0.19843-0.0496 0.29765 0.0496 0.12403 0.0744 0.12403 0.29766 0 0.19844-0.17364 0.47129zm-6.35-3.8199q-0.29765 0-0.71933 0.29765-0.39688 0.29766-0.79375 0.86817-0.39688 0.5457-0.74414 1.3642-0.34727 0.79375-0.5209 1.8356 0.29766-0.22324 0.64492-0.44648 0.34727-0.24805 0.69453-0.5209 1.0666-0.81856 1.4883-1.4387 0.42168-0.62012 0.47129-1.0666 0.0496-0.47128-0.0992-0.66972-0.14882-0.22324-0.42168-0.22324zm-10.815 8.5824q1.0914-4.5889 1.7363-7.367 0.66973-2.7781 1.017-4.2416 0.39688-1.7363 0.5457-2.4061 0.07441-0.47129 0.12402-0.91777 0.04961-0.39688 0.04961-0.81855 0-0.42168-0.07441-0.76895 0.19844-0.12402 0.42168-0.19844 0.24805-0.07441 0.47129-0.12402 0.27285-0.07442 0.5457-0.12402 0.27284-0.04961 0.49609-0.04961 0.19843 0 0.37207 0.04961 0.17363 0.02481 0.22324 0.14883 0.14883 0.12402 0.12402 0.49609 0 0.37207-0.0496 0.76894-0.0992 0.47129-0.22324 1.017-0.29766 1.0666-0.81855 3.0758-0.44648 1.7115-1.2154 4.6633-0.74414 2.9518-1.8852 7.4414-0.12402 0.12402-0.29766 0.17363-0.17363 0.0496-0.32246 0.0496-0.17363 0-0.37207-0.0248-0.17363-0.0496-0.34727-0.14883-0.14883-0.0992-0.29766-0.27285-0.14883-0.14883-0.22324-0.42168zm-4.7625 3.9439q-0.12402 0.59532-0.32246 1.4883-0.17363 0.89297-0.42168 1.8852-0.22324 0.99219-0.5457 1.9596-0.29766 0.99219-0.66973 1.7611-0.37207 0.79375-0.81856 1.2898-0.44648 0.49609-0.99219 0.49609-0.81856 0-1.4139-0.49609-0.57051-0.47129-0.96738-1.2154-0.39688-0.71934-0.57051-1.5627-0.19844-0.84336-0.19844-1.5627 0-0.99219 0.17363-1.6619 0.17363-0.64492 0.59531-1.2402 0.44648-0.59532 1.1906-1.265 0.74414-0.66973 1.91-1.6619 0.57051-0.49609 1.0914-0.94257 0.5209-0.44649 0.99219-0.81856 0.12402-0.49609 0.22324-0.91777 0.12402-0.44649 0.19844-0.79375-0.64492 0.86816-1.5627 1.4635-0.89297 0.59532-2.0588 0.59532-1.0666 0-1.7363-0.94258-0.64492-0.96738-0.64492-2.8277 0-0.91777 0.34726-2.1084 0.34727-1.1906 0.99219-2.2324t1.5875-1.7611q0.94258-0.71933 2.1084-0.71933 0.5457 0 0.94258 0.27285t0.66973 0.69453q0.27285 0.39687 0.42168 0.86816 0.14883 0.44649 0.22324 0.84336 0.04961-0.14883 0.07441-0.29765 0.0248-0.17364 0.07441-0.29766 0.24805-0.84336 0.5457-1.141 0.32246-0.32246 0.94258-0.32246 0.34727 0 0.57051 0.12403 0.24805 0.12402 0.24805 0.22324-0.12402 0.27285-0.19844 0.42168-0.07441 0.14883-0.14883 0.32246-0.07441 0.14883-0.14883 0.39687-0.07441 0.24805-0.19844 0.71934-0.04961 0.17363-0.19844 0.81855-0.12402 0.62012-0.34727 1.4883-0.19844 0.86816-0.44648 1.91-0.22324 1.0418-0.44648 2.034 0.69453-0.39687 1.4387-0.96738 0.74414-0.57051 1.4139-1.1658 0.66973-0.59531 1.1906-1.1162 0.5209-0.54571 0.76894-0.89297 0.19844-0.29766 0.44648-0.42168t0.42168-0.0744q0.19844 0.0248 0.22324 0.22324 0.04961 0.17363-0.14883 0.49609-0.57051 0.91778-1.3891 1.7859-0.81855 0.84336-1.6867 1.5875-0.84336 0.71934-1.6619 1.2898-0.79375 0.5457-1.3643 0.89296-0.24805 1.1162-0.42168 1.8108t-0.29766 1.265zm-3.1254-4.8865q0.5209 0 0.96738-0.27285 0.47129-0.27285 0.84336-0.62012 0.37207-0.37207 0.62012-0.74414t0.37207-0.59531q0.09922-0.22324 0.22324-0.59532 0.14883-0.37207 0.22324-0.71933 0.07441-0.34727 0.04961-0.62012 0-0.27285-0.17363-0.29765-0.14883-0.0248-0.24805-0.19844-0.07441-0.17363-0.12402-0.39688-0.04961-0.22324-0.07441-0.44648 0-0.22324-0.02481-0.39688-0.12402-0.86816-0.42168-1.265-0.29766-0.39687-0.66973-0.39687-0.62012 0-1.1906 0.49609-0.5457 0.4961-0.99219 1.2898-0.42168 0.76894-0.66973 1.7115-0.24805 0.91777-0.24805 1.7611 0 1.0418 0.29766 1.6867 0.29766 0.62012 1.2402 0.62012zm-1.141 11.509q0.49609 0 0.79375-0.74414 0.32246-0.71933 0.66973-1.9844 0.07441-0.29766 0.19844-0.86817 0.14883-0.5457 0.32246-1.265 0.19844-0.71934 0.39688-1.5627 0.19844-0.81855 0.42168-1.6619-0.19844 0.17363-0.42168 0.34726-0.19844 0.19844-0.42168 0.44649-0.5457 0.52089-1.0666 0.99218-0.49609 0.4961-0.89297 1.017-0.39688 0.54571-0.64492 1.1658-0.22324 0.62011-0.22324 1.4387 0 0.81855 0.04961 1.3394 0.07441 0.5209 0.17363 0.81856 0.12402 0.29765 0.27285 0.39687 0.17363 0.12402 0.37207 0.12402zm-7.4166-6.6228q-0.12402 0.59532-0.32246 1.4883-0.17363 0.89297-0.42168 1.8852-0.22324 0.99219-0.5457 1.9596-0.29766 0.99219-0.66973 1.7611-0.37207 0.79375-0.81855 1.2898-0.44648 0.49609-0.99219 0.49609-0.81855 0-1.4139-0.49609-0.57051-0.47129-0.96738-1.2154-0.39688-0.71934-0.57051-1.5627-0.19844-0.84336-0.19844-1.5627 0-0.99219 0.17363-1.6619 0.17363-0.64492 0.59531-1.2402 0.44648-0.59531 1.1906-1.265 0.74414-0.66973 1.91-1.6619 0.57051-0.4961 1.0914-0.94258 0.5209-0.44649 0.99219-0.81856 0.12402-0.49609 0.22324-0.91777 0.12402-0.44649 0.19844-0.79375-0.64492 0.86816-1.5627 1.4635-0.89297 0.59532-2.0588 0.59532-1.0666 0-1.7363-0.94258-0.64492-0.96738-0.64492-2.8277 0-0.91778 0.34727-2.1084 0.34727-1.1906 0.99219-2.2324t1.5875-1.7611q0.94258-0.71933 2.1084-0.71933 0.5457 0 0.94258 0.27285t0.66973 0.69453q0.27285 0.39687 0.42168 0.86816 0.14883 0.44649 0.22324 0.84336 0.04961-0.14883 0.07441-0.29765 0.02481-0.17364 0.07441-0.29766 0.24805-0.84336 0.5457-1.141 0.32246-0.32246 0.94258-0.32246 0.34726 0 0.57051 0.12403 0.24805 0.12402 0.24805 0.22324-0.12402 0.27285-0.19844 0.42168-0.07441 0.14883-0.14883 0.32246-0.07441 0.14883-0.14883 0.39687-0.07441 0.24805-0.19844 0.71934-0.04961 0.17363-0.19844 0.81856-0.12402 0.62011-0.34727 1.4883-0.19844 0.86816-0.44648 1.91-0.22324 1.0418-0.44648 2.034 0.69453-0.39687 1.4387-0.96738 0.74414-0.57051 1.4139-1.1658 0.66973-0.59531 1.1906-1.1162 0.5209-0.54571 0.76895-0.89297 0.19844-0.29766 0.44648-0.42168t0.42168-0.0744q0.19844 0.0248 0.22324 0.22324 0.04961 0.17363-0.14883 0.49609-0.57051 0.91778-1.3891 1.7859-0.81855 0.84336-1.6867 1.5875-0.84336 0.71934-1.6619 1.2898-0.79375 0.5457-1.3643 0.89296-0.24805 1.1162-0.42168 1.8108t-0.29766 1.265zm-3.1254-4.8865q0.5209 0 0.96738-0.27285 0.47129-0.27285 0.84336-0.62012 0.37207-0.37207 0.62012-0.74414t0.37207-0.59531q0.09922-0.22324 0.22324-0.59531 0.14883-0.37208 0.22324-0.71934 0.07441-0.34727 0.04961-0.62012 0-0.27285-0.17363-0.29765-0.14883-0.0248-0.24805-0.19844-0.07441-0.17363-0.12402-0.39688-0.04961-0.22324-0.07441-0.44648 0-0.22324-0.0248-0.39688-0.12402-0.86816-0.42168-1.265-0.29766-0.39687-0.66973-0.39687-0.62012 0-1.1906 0.49609-0.5457 0.4961-0.99219 1.2898-0.42168 0.76894-0.66973 1.7115-0.24805 0.91777-0.24805 1.7611 0 1.0418 0.29766 1.6867 0.29766 0.62012 1.2402 0.62012zm-1.141 11.509q0.49609 0 0.79375-0.74414 0.32246-0.71933 0.66973-1.9844 0.07441-0.29766 0.19844-0.86817 0.14883-0.5457 0.32246-1.265 0.19844-0.71934 0.39688-1.5627 0.19844-0.81855 0.42168-1.6619-0.19844 0.17363-0.42168 0.34726-0.19844 0.19844-0.42168 0.44649-0.5457 0.52089-1.0666 0.99218-0.49609 0.4961-0.89297 1.017-0.39688 0.5457-0.64492 1.1658-0.22324 0.62011-0.22324 1.4387 0 0.81855 0.04961 1.3394 0.07441 0.5209 0.17363 0.81856 0.12402 0.29765 0.27285 0.39687 0.17363 0.12402 0.37207 0.12402zm-0.62012-15.106q-0.34727 0.49609-0.89297 1.2402-0.5457 0.71934-1.141 1.4635-0.57051 0.71934-1.141 1.3394-0.5457 0.59532-0.91777 0.84336-0.24805 0.14883-0.57051 0.24805-0.32246 0.0992-0.66973 0.12402-0.32246 0.0248-0.62012-0.0496-0.29766-0.0496-0.5209-0.19843-0.22324-0.17364-0.37207-0.4961-0.12402-0.27285-0.24805-0.71933-0.09922-0.44649-0.07441-1.1162-0.59531 0.99218-1.3146 1.5379-0.71934 0.52089-1.3643 0.76894-0.74414 0.27285-1.4883 0.32246-0.34727 0-0.74414-0.24804-0.39688-0.22325-0.66973-0.71934-0.27285-0.5209-0.34727-1.3146-0.07441-0.81855 0.19844-1.9348 0.34727-1.5131 1.0914-2.7533 0.76894-1.2402 1.6619-2.1084 0.89297-0.89297 1.7611-1.3395 0.86816-0.44648 1.4387-0.39687 0.66973 0.12402 1.0914 0.39687 0.34726 0.24805 0.44648 0.74414 0.12402 0.47129-0.39688 1.265 0.34727-0.0744 0.57051-0.0992 0.24805-0.0248 0.37207-0.0248 0.14883 0 0.19844 0.0248 0.0248 0.0496 0.0248 0.22324 0 0.14883-0.07441 0.57051t-0.22324 1.141q-0.14883 0.71933-0.39688 1.8604-0.04961 0.22324-0.09922 0.42168-0.0248 0.17363-0.07441 0.37207-0.0248 0.17363-0.07441 0.42168t-0.12402 0.62012q-0.02481 0.22324-0.02481 0.49609 0.02481 0.24805 0.09922 0.47129t0.22324 0.37207q0.17363 0.12402 0.47129 0.12402 0.24805 0 0.64492-0.29765 0.39688-0.32247 0.84336-0.79375 0.44648-0.4961 0.91777-1.0666 0.49609-0.59531 0.91777-1.141t0.74414-0.96738q0.34726-0.42168 0.49609-0.62012 0.19844-0.22324 0.39688-0.24805 0.19844-0.0496 0.29766 0.0992 0.09922 0.14883 0.0248 0.44649-0.04961 0.29765-0.34726 0.69453zm-7.2678 1.0914q0.12402-0.4961 0.29766-1.1658 0.17363-0.66972 0.29766-1.2898t0.17363-1.017q0.07441-0.42168-0.0248-0.39688-0.12402 0.0248-0.27285 0.0744-0.12402 0.0496-0.32246 0.0744t-0.39688 0.0744q0.19844-0.39687 0.22324-0.64492 0.04961-0.27285 0.0248-0.42168-0.0248-0.17363-0.09922-0.27285-0.27285-0.22324-0.96738 0.37207-0.66973 0.57051-1.5627 2.1332-0.37207 0.64493-0.59531 1.3891-0.22324 0.71933-0.32246 1.3642-0.07441 0.64493-0.0248 1.141 0.04961 0.47129 0.19844 0.62012 0.27285 0.27285 0.62012 0.27285 0.34727-0.0248 0.69453-0.19844 0.37207-0.19844 0.71934-0.49609 0.37207-0.29766 0.64492-0.62012 0.29766-0.32246 0.47129-0.59531 0.19844-0.27285 0.22324-0.39688zm-22.647 8.5824c-0.47956 0-0.69223-0.15934-1.3395-0.64492-0.64722-0.48559-1.5753-1.5629-2.1478-4.6326s-1.4522-11.008 2.6755-18.064 12.741-8.1255 13.194-8.1297c-0.34825 0.50389-6.8444 3.5612-9.7334 8.9612s-3.3815 17.132-3.1961 18.684c0.18541 1.552 0.4562 1.5685 0.96883 1.5685 0.24805 0 0.51263-0.15709 0.79375-0.47129 0.28112-0.31419 0.56224-0.71933 0.84336-1.2154 0.29766-0.49609 0.58704-1.0501 0.86816-1.6619s0.5457-1.2154 0.79375-1.8107c0.14883-0.38034 0.30592-0.80202 0.47129-1.265 0.1819-0.47956 0.35553-0.96738 0.5209-1.4635 0.1819-0.49609 0.35553-0.98392 0.5209-1.4635l0.44648-1.3395c0-0.49609 0.0083-1.017 0.02481-1.5627 0.01654-0.56224 0.04961-1.1245 0.09922-1.6867 0.06615-0.57878 0.14883-1.141 0.24805-1.6867 0.09922-0.56224 0.23151-1.0749 0.39688-1.5379 0.33073-0.89297 0.71934-1.5462 1.1658-1.9596 0.44648-0.42995 0.83509-0.65319 1.1658-0.66973 0.23151 0 0.39688 0.09922 0.49609 0.29766 0.09922 0.19844 0.14056 0.46302 0.12402 0.79375-0.03307 0.42995-0.10749 0.95085-0.22324 1.5627-0.11576 0.59531-0.25632 1.2402-0.42168 1.9348-0.14883 0.678-0.32246 1.3725-0.5209 2.0836-0.19844 0.69453-0.38861 1.3643-0.57051 2.0092-0.29766 1.7033-0.47956 3.2494-0.5457 4.6385-0.06615 1.3725-0.05788 2.5549 0.02481 3.5471 0.09922 0.97565 0.25632 1.7281 0.47129 2.2572 0.23151 0.5457 0.50436 0.81855 0.81856 0.81855 0.3638 0 0.74414-0.24805 1.141-0.74414 0.41341-0.49609 0.81856-1.1493 1.2154-1.9596 0.39688-0.82682 0.77721-1.7611 1.141-2.8029 0.38034-1.0418 0.71934-2.1084 1.017-3.1998 0.31419-1.108 0.57051-2.1911 0.76894-3.2494 0.19844-1.0749 0.33073-2.0422 0.39688-2.9021 0.04961-0.71107 0.07441-1.4139 0.07441-2.1084 0-0.59531-0.0248-1.232-0.07441-1.91s-0.14056-1.2898-0.27285-1.8355c0.21497-0.1819 0.50436-0.33073 0.86816-0.44648 0.1819-0.06615 0.38034-0.12402 0.59531-0.17363 0.13229-0.03307 0.27285-0.05788 0.42168-0.07441 0.13229-0.01654 0.26458-0.02481 0.39688-0.02481 0.13229-0.01653 0.25632-0.0083 0.37207 0.02481 0.09922 0.23151 0.16536 0.52917 0.19844 0.89297 0.04961 0.3638 0.08268 0.71934 0.09922 1.0666 0.01653 0.41341 0.0083 0.84336-0.02481 1.2898-0.13229 1.7529-0.3638 3.4727-0.69453 5.1594-0.31419 1.6867-0.7028 3.2908-1.1658 4.8121-0.46302 1.5048-0.98392 2.8939-1.5627 4.1672-0.56224 1.2568-1.1493 2.3482-1.7611 3.2742-0.59531 0.92605-1.1989 1.6454-1.8107 2.158-0.59531 0.51263-1.1658 0.76895-1.7115 0.76895-0.57878 0-1.0418-0.24805-1.3891-0.74414-0.34727-0.47956-0.61185-1.0914-0.79375-1.8356-0.1819-0.7276-0.29766-1.5131-0.34727-2.3564-0.04961-0.84336-0.06614-1.6206-0.04961-2.3316-0.38034 0.92605-0.79375 1.819-1.2402 2.6789-0.42995 0.8599-0.8847 1.6206-1.3643 2.282-0.46302 0.678-0.94258 1.2154-1.4387 1.6123-0.47956 0.41341-0.95912 0.62011-1.4387 0.62011z" stroke-linecap="round" stroke-width=".10994"/></g></g></svg>
